# Blender v2.92.0 Alpha OBJ File: ''
# www.blender.org
o Circle.001
v -5.000000 0.500000 0.000000
v -5.433012 -0.250000 -0.000000
v -4.566987 -0.250000 -0.000000
vt 0.500000 1.000000
vt 0.066987 0.250000
vt 0.933013 0.250000
vn 0.0000 -0.0000 1.0000
s off
f 1/1/1 2/2/1 3/3/1
o Circle.002
v -4.000000 0.500000 0.000000
v -4.500000 -0.000000 -0.000000
v -4.000000 -0.500000 -0.000000
v -3.500000 0.000000 0.000000
vt 0.500000 1.000000
vt 0.000000 0.500000
vt 0.500000 0.000000
vt 1.000000 0.500000
vn -0.0000 -0.0000 1.0000
s off
f 4/4/2 5/5/2 6/6/2 7/7/2
o Circle.003
v -3.000000 0.500000 0.000000
v -3.475528 0.154508 0.000000
v -3.293892 -0.404509 -0.000000
v -2.706107 -0.404508 -0.000000
v -2.524472 0.154509 0.000000
vt 0.500000 1.000000
vt 0.024472 0.654508
vt 0.206107 0.095491
vt 0.793893 0.095492
vt 0.975528 0.654509
vn 0.0000 -0.0000 1.0000
s off
f 8/8/3 9/9/3 10/10/3 11/11/3 12/12/3
o Circle.004
v -2.000000 0.500000 0.000000
v -2.433013 0.250000 0.000000
v -2.433013 -0.250000 -0.000000
v -2.000000 -0.500000 -0.000000
v -1.566987 -0.250000 -0.000000
v -1.566987 0.250000 0.000000
vt 0.500000 1.000000
vt 0.066987 0.750000
vt 0.066987 0.250000
vt 0.500000 0.000000
vt 0.933013 0.250000
vt 0.933013 0.750000
vn -0.0000 -0.0000 1.0000
s off
f 13/13/4 14/14/4 15/15/4 16/16/4 17/17/4 18/18/4
o Circle.005
v -1.000000 0.500000 0.000000
v -1.390916 0.311745 0.000000
v -1.487464 -0.111260 -0.000000
v -1.216942 -0.450484 -0.000000
v -0.783058 -0.450484 -0.000000
v -0.512536 -0.111261 -0.000000
v -0.609084 0.311745 0.000000
vt 0.500000 1.000000
vt 0.109084 0.811745
vt 0.012536 0.388740
vt 0.283058 0.049516
vt 0.716942 0.049516
vt 0.987464 0.388739
vt 0.890916 0.811745
vn -0.0000 -0.0000 1.0000
s off
f 19/19/5 20/20/5 21/21/5 22/22/5 23/23/5 24/24/5 25/25/5
o Circle.006
v 0.000000 0.500000 0.000000
v -0.353553 0.353553 0.000000
v -0.500000 -0.000000 -0.000000
v -0.353553 -0.353553 -0.000000
v 0.000001 -0.500000 -0.000000
v 0.353554 -0.353553 -0.000000
v 0.500000 0.000000 0.000000
v 0.353554 0.353553 0.000000
vt 0.500000 1.000000
vt 0.146447 0.853553
vt 0.000000 0.500000
vt 0.146447 0.146447
vt 0.500000 0.000000
vt 0.853553 0.146447
vt 1.000000 0.500000
vt 0.853553 0.853553
vn 0.0000 -0.0000 1.0000
s off
f 26/26/6 27/27/6 28/28/6 29/29/6 30/30/6 31/31/6 32/32/6 33/33/6
o Circle.007
v 1.000000 0.500000 0.000000
v 0.678607 0.383022 0.000000
v 0.507597 0.086824 0.000000
v 0.566988 -0.250000 -0.000000
v 0.828990 -0.469846 -0.000000
v 1.171011 -0.469846 -0.000000
v 1.433013 -0.250000 -0.000000
v 1.492404 0.086824 0.000000
v 1.321394 0.383022 0.000000
vt 0.500000 1.000000
vt 0.178606 0.883022
vt 0.007596 0.586824
vt 0.066987 0.250000
vt 0.328990 0.030154
vt 0.671010 0.030154
vt 0.933013 0.250000
vt 0.992404 0.586824
vt 0.821394 0.883022
vn 0.0000 -0.0000 1.0000
s off
f 34/34/7 35/35/7 36/36/7 37/37/7 38/38/7 39/39/7 40/40/7 41/41/7 42/42/7
o Circle.008
v 2.000000 0.500000 0.000000
v 1.706107 0.404509 0.000000
v 1.524472 0.154508 0.000000
v 1.524472 -0.154509 -0.000000
v 1.706107 -0.404509 -0.000000
v 2.000000 -0.500000 -0.000000
v 2.293893 -0.404508 -0.000000
v 2.475528 -0.154509 -0.000000
v 2.475528 0.154509 0.000000
v 2.293892 0.404509 0.000000
vt 0.500000 1.000000
vt 0.206107 0.904508
vt 0.024472 0.654508
vt 0.024472 0.345491
vt 0.206107 0.095491
vt 0.500000 0.000000
vt 0.793893 0.095492
vt 0.975528 0.345491
vt 0.975528 0.654509
vt 0.793893 0.904509
vn 0.0000 -0.0000 1.0000
s off
f 43/43/8 44/44/8 45/45/8 46/46/8 47/47/8 48/48/8 49/49/8 50/50/8 51/51/8 52/52/8
o Circle.009
v 3.000000 0.500000 0.000000
v 2.729680 0.420627 0.000000
v 2.545184 0.207707 0.000000
v 2.505089 -0.071157 -0.000000
v 2.622125 -0.327430 -0.000000
v 2.859134 -0.479747 -0.000000
v 3.140866 -0.479746 -0.000000
v 3.377875 -0.327430 -0.000000
v 3.494911 -0.071157 -0.000000
v 3.454816 0.207708 0.000000
v 3.270320 0.420627 0.000000
vt 0.500000 1.000000
vt 0.229680 0.920627
vt 0.045184 0.707707
vt 0.005089 0.428843
vt 0.122125 0.172570
vt 0.359134 0.020253
vt 0.640866 0.020254
vt 0.877875 0.172570
vt 0.994911 0.428843
vt 0.954816 0.707708
vt 0.770320 0.920627
vn -0.0000 -0.0000 1.0000
s off
f 53/53/9 54/54/9 55/55/9 56/56/9 57/57/9 58/58/9 59/59/9 60/60/9 61/61/9 62/62/9 63/63/9
o Circle.010
v 4.000000 0.500000 0.000000
v 3.750000 0.433013 0.000000
v 3.566987 0.250000 0.000000
v 3.500000 -0.000000 -0.000000
v 3.566987 -0.250000 -0.000000
v 3.750000 -0.433013 -0.000000
v 4.000000 -0.500000 -0.000000
v 4.250000 -0.433013 -0.000000
v 4.433012 -0.250000 -0.000000
v 4.500000 -0.000000 -0.000000
v 4.433013 0.250000 0.000000
v 4.250000 0.433013 0.000000
vt 0.500000 1.000000
vt 0.250000 0.933013
vt 0.066987 0.750000
vt 0.000000 0.500000
vt 0.066987 0.250000
vt 0.250000 0.066987
vt 0.500000 0.000000
vt 0.750000 0.066987
vt 0.933013 0.250000
vt 1.000000 0.500000
vt 0.933013 0.750000
vt 0.750000 0.933013
vn 0.0000 -0.0000 1.0000
s off
f 64/64/10 65/65/10 66/66/10 67/67/10 68/68/10 69/69/10 70/70/10 71/71/10 72/72/10 73/73/10 74/74/10 75/75/10
o Circle.011
v 5.000000 0.500000 0.000000
v 4.767638 0.442728 0.000000
v 4.588508 0.284032 0.000000
v 4.503645 0.060268 0.000000
v 4.532492 -0.177302 -0.000000
v 4.668439 -0.374255 -0.000000
v 4.880342 -0.485471 -0.000000
v 5.119658 -0.485471 -0.000000
v 5.331561 -0.374255 -0.000000
v 5.467508 -0.177303 -0.000000
v 5.496355 0.060268 0.000000
v 5.411492 0.284032 0.000000
v 5.232361 0.442728 0.000000
vt 0.500000 1.000000
vt 0.267638 0.942728
vt 0.088508 0.784032
vt 0.003646 0.560268
vt 0.032492 0.322698
vt 0.168439 0.125745
vt 0.380342 0.014529
vt 0.619658 0.014529
vt 0.831561 0.125745
vt 0.967508 0.322697
vt 0.996354 0.560268
vt 0.911492 0.784032
vt 0.732361 0.942728
vn -0.0000 -0.0000 1.0000
s off
f 76/76/11 77/77/11 78/78/11 79/79/11 80/80/11 81/81/11 82/82/11 83/83/11 84/84/11 85/85/11 86/86/11 87/87/11 88/88/11
